<svg xmlns="http://www.w3.org/2000/svg" width="42.463" height="50.161" viewBox="0 0 42.463 50.161">
  <path id="Icon_awesome-bone" data-name="Icon awesome-bone" d="M42.109,17.2A5.23,5.23,0,0,0,45,12.518v-.537a5.231,5.231,0,0,0-10.192-1.654c-.54,1.619-.816,3.174-2.68,3.174H12.871c-1.925,0-2.22-1.8-2.68-3.174A5.23,5.23,0,0,0,0,11.981v.537A5.23,5.23,0,0,0,2.891,17.2a.9.9,0,0,1,0,1.609A5.23,5.23,0,0,0,0,23.482v.537a5.23,5.23,0,0,0,10.192,1.654c.54-1.619.816-3.174,2.68-3.174H32.128c1.925,0,2.22,1.8,2.68,3.174A5.23,5.23,0,0,0,45,24.019v-.537A5.23,5.23,0,0,0,42.108,18.8.9.9,0,0,1,42.109,17.2Z" transform="translate(25.072 -3.477) rotate(59)" fill="#fff"/>
</svg>
