<svg xmlns="http://www.w3.org/2000/svg" width="25.701" height="34.11" viewBox="0 0 25.701 34.11">
  <path id="Icon_map-dentist" data-name="Icon map-dentist" d="M17.89,19.633c2.554,0,3.738,1.937,3.986,4.689a18.907,18.907,0,0,1-.086,2.73c-.287,3.692-.616,8.229,1.841,8.229,2.081,0,3.147-3.989,3.765-8.536.595-4.5-.037-6.741.275-8.741.591-3.787,3.9-7.183,2.876-12.012a5.573,5.573,0,0,0-3.5-4.469C23.679.3,21.5,2.658,17.89,2.658S12.1.3,8.736,1.522a5.577,5.577,0,0,0-3.5,4.469C4.214,10.82,7.519,14.215,8.112,18c.309,2-.319,4.239.275,8.741C9,31.291,10.072,35.28,12.151,35.28c2.456,0,2.128-4.537,1.842-8.229a19.042,19.042,0,0,1-.087-2.73C14.153,21.57,15.354,19.633,17.89,19.633Z" transform="translate(-5.039 -1.17)" fill="#fff"/>
</svg>
