<svg xmlns="http://www.w3.org/2000/svg" width="33.757" height="27.007" viewBox="0 0 33.757 27.007">
  <g id="Icon_ionic-ios-partly-sunny" data-name="Icon ionic-ios-partly-sunny" transform="translate(-1.125 -4.5)">
    <g id="Groupe_14" data-name="Groupe 14">
      <path id="Tracé_3" data-name="Tracé 3" d="M11.827,4.5h-.021a1.113,1.113,0,0,0-1.111,1.111v2.13a1.113,1.113,0,0,0,1.111,1.111h.021a1.113,1.113,0,0,0,1.111-1.111V5.611A1.113,1.113,0,0,0,11.827,4.5Z" fill="#f46b1e"/>
      <path id="Tracé_4" data-name="Tracé 4" d="M5.555,15.2V15.18A1.113,1.113,0,0,0,4.444,14.07H2.236A1.113,1.113,0,0,0,1.125,15.18V15.2a1.113,1.113,0,0,0,1.111,1.111h2.2A1.115,1.115,0,0,0,5.555,15.2Z" fill="#f46b1e"/>
      <path id="Tracé_5" data-name="Tracé 5" d="M5.6,10.477A1.111,1.111,0,1,0,7.179,8.909L5.752,7.467a1.113,1.113,0,0,0-.787-.33h0a1.114,1.114,0,0,0-.787,1.9Z" fill="#f46b1e"/>
      <path id="Tracé_6" data-name="Tracé 6" d="M19.055,7.4a1.113,1.113,0,0,0-.788-.33h0a1.113,1.113,0,0,0-.788.33L16.052,8.831a1.116,1.116,0,0,0,0,1.568l.021.021h.007a1.092,1.092,0,0,0,.759.3,1.113,1.113,0,0,0,.788-.33l1.427-1.434A1.108,1.108,0,0,0,19.055,7.4Z" fill="#f46b1e"/>
      <path id="Tracé_7" data-name="Tracé 7" d="M6.532,19.216h0a1.113,1.113,0,0,0-.787.33L4.317,20.988a1.111,1.111,0,1,0,1.575,1.568L7.32,21.115a1.114,1.114,0,0,0-.787-1.9Z" fill="#f46b1e"/>
    </g>
    <path id="Tracé_8" data-name="Tracé 8" d="M28.357,18.225h-.169a4.661,4.661,0,0,0-.633.028,7.9,7.9,0,0,0-10.624-5.646,7.776,7.776,0,0,0-1.034.5,7.932,7.932,0,0,0-3.952,6.441c-.007.148-.014.288-.014.436,0,.239.014.478.035.71,0,.028.007.056.007.077a5.388,5.388,0,0,0,.471,10.737H28.364a6.642,6.642,0,0,0-.007-13.282Z" fill="#f46b1e"/>
    <path id="Tracé_9" data-name="Tracé 9" d="M10.6,19.941V19.92c-.021-.239-.035-.478-.035-.717,0-.148.007-.3.014-.443A8.06,8.06,0,0,1,14.6,12.213a7.555,7.555,0,0,1,1.048-.506h.007A5.152,5.152,0,1,0,10.6,19.941Z" fill="#f46b1e"/>
  </g>
</svg>
