<svg xmlns="http://www.w3.org/2000/svg" width="47" height="47" viewBox="0 0 47 47">
  <path id="Icon_ionic-ios-person" data-name="Icon ionic-ios-person" d="M51.477,50.313c-.881-3.892-5.912-5.789-7.65-6.4-1.909-.673-4.627-.832-6.377-1.224a6.48,6.48,0,0,1-2.95-1.359c-.49-.588-.2-6.034-.2-6.034a18.154,18.154,0,0,0,1.4-2.656A34.257,34.257,0,0,0,36.728,28s1,0,1.359-1.763c.379-1.922.979-2.668.906-4.1-.073-1.408-.845-1.371-.845-1.371a21.459,21.459,0,0,0,.832-6.279C39.09,9.457,35.149,4.5,28.013,4.5c-7.234,0-11.09,4.957-10.979,9.988a22.383,22.383,0,0,0,.82,6.279s-.771-.037-.845,1.371c-.073,1.432.526,2.179.906,4.1C18.257,28,19.273,28,19.273,28A34.257,34.257,0,0,0,20.3,32.639a18.154,18.154,0,0,0,1.4,2.656s.294,5.447-.2,6.034a6.48,6.48,0,0,1-2.95,1.359c-1.75.392-4.468.551-6.377,1.224-1.738.612-6.769,2.509-7.65,6.4A.978.978,0,0,0,5.491,51.5H50.523A.976.976,0,0,0,51.477,50.313Z" transform="translate(-4.501 -4.5)"/>
</svg>
