<svg xmlns="http://www.w3.org/2000/svg" width="14.567" height="6.781" viewBox="0 0 14.567 6.781">
  <path id="Icon_map-moving-company" data-name="Icon map-moving-company" d="M3,14.825a1.02,1.02,0,1,0,0,2.036,1.02,1.02,0,1,0,0-2.036Zm0,1.543A.51.51,0,1,1,3,15.35a.528.528,0,0,1,.545.509.491.491,0,0,1-.159.36A.567.567,0,0,1,3,16.368Zm9.573-1.543a1.02,1.02,0,1,0,1.089,1.018A1.056,1.056,0,0,0,12.576,14.825Zm0,1.543a.51.51,0,1,1,.545-.509A.528.528,0,0,1,12.576,16.368Zm2.41-6.288H5.412a.292.292,0,0,0-.3.282v2.555h-.6V11.348a.272.272,0,0,0-.088-.2.314.314,0,0,0-.214-.083H2.152a.734.734,0,0,0-.735.6v-.018L1.1,13.338v.006a.432.432,0,0,0-.377.417l.01.09-.01,0,.452,1.9h.471v-.017A1.289,1.289,0,0,1,2.982,14.5,1.29,1.29,0,0,1,4.32,15.735v.017h6.9v-.017a1.342,1.342,0,0,1,2.676,0v.017h1.4v-5.39a.292.292,0,0,0-.3-.282ZM3.452,11.524v1.392H1.643l.226-1.181a.292.292,0,0,1,.283-.246h1.3v.034Z" transform="translate(-0.72 -10.08)" fill="#1e6074"/>
</svg>
