<svg xmlns="http://www.w3.org/2000/svg" width="29.075" height="18" viewBox="0 0 29.075 18">
  <path id="Icon_awesome-money-bill-alt" data-name="Icon awesome-money-bill-alt" d="M15.991,15h-.727V10.875A.369.369,0,0,0,14.9,10.5h-.617a1.065,1.065,0,0,0-.6.189l-.7.479a.382.382,0,0,0-.1.52l.4.624a.356.356,0,0,0,.5.1l.021-.015V15h-.727a.369.369,0,0,0-.363.375v.75a.369.369,0,0,0,.363.375h2.908a.369.369,0,0,0,.363-.375v-.75A.369.369,0,0,0,15.991,15ZM27.621,4.5H1.454A1.478,1.478,0,0,0,0,6V21a1.478,1.478,0,0,0,1.454,1.5H27.621A1.478,1.478,0,0,0,29.075,21V6A1.478,1.478,0,0,0,27.621,4.5ZM2.181,20.25v-3a2.955,2.955,0,0,1,2.908,3Zm0-10.5v-3H5.088A2.955,2.955,0,0,1,2.181,9.75Zm12.357,9c-2.409,0-4.361-2.351-4.361-5.25s1.953-5.25,4.361-5.25S18.9,10.6,18.9,13.5,16.945,18.75,14.538,18.75Zm12.357,1.5H23.987a2.955,2.955,0,0,1,2.908-3Zm0-10.5a2.955,2.955,0,0,1-2.908-3h2.908Z" transform="translate(0 -4.5)" fill="#f46b1e" opacity="0.8"/>
</svg>
