<svg xmlns="http://www.w3.org/2000/svg" width="14" height="12" viewBox="0 0 14 12">
  <path id="Icon_material-card-giftcard" data-name="Icon material-card-giftcard" d="M15.6,5.526H14.074a1.733,1.733,0,0,0,.126-.632A2,2,0,0,0,12.1,3a2.163,2.163,0,0,0-1.75.853L10,4.276l-.35-.429A2.176,2.176,0,0,0,7.9,3,2,2,0,0,0,5.8,4.895a1.733,1.733,0,0,0,.126.632H4.4A1.326,1.326,0,0,0,3.007,6.789L3,13.737A1.332,1.332,0,0,0,4.4,15H15.6A1.332,1.332,0,0,0,17,13.737V6.789A1.332,1.332,0,0,0,15.6,5.526ZM12.1,4.263a.67.67,0,0,1,.7.632.7.7,0,0,1-1.4,0A.67.67,0,0,1,12.1,4.263Zm-4.2,0a.67.67,0,0,1,.7.632.7.7,0,0,1-1.4,0A.67.67,0,0,1,7.9,4.263Zm7.7,9.474H4.4V12.474H15.6Zm0-3.158H4.4V6.789H7.956L6.5,8.577l1.134.739L9.3,7.269l.7-.859.7.859,1.666,2.046L13.5,8.577,12.044,6.789H15.6Z" transform="translate(-3 -3)" fill="#f46b1e" opacity="0.8"/>
</svg>
