<svg xmlns="http://www.w3.org/2000/svg" width="33.046" height="24.583" viewBox="0 0 33.046 24.583">
  <path id="Icon_awesome-money-check-alt" data-name="Icon awesome-money-check-alt" d="M31.394,2.25H1.652A1.707,1.707,0,0,0,0,4.006V25.077a1.707,1.707,0,0,0,1.652,1.756H31.394a1.707,1.707,0,0,0,1.652-1.756V4.006A1.707,1.707,0,0,0,31.394,2.25ZM9.088,18.485v.885a.426.426,0,0,1-.413.439H7.848a.426.426,0,0,1-.413-.439v-.894a2.851,2.851,0,0,1-1.62-.623.458.458,0,0,1-.029-.666l.607-.615a.4.4,0,0,1,.523-.04,1.19,1.19,0,0,0,.662.2H9.029a.675.675,0,0,0,.609-.724.715.715,0,0,0-.453-.7l-2.324-.741a2.473,2.473,0,0,1-1.631-2.381,2.383,2.383,0,0,1,2.2-2.473V8.835A.426.426,0,0,1,7.848,8.4h.826a.426.426,0,0,1,.413.439v.894a2.847,2.847,0,0,1,1.62.623.458.458,0,0,1,.029.666l-.607.615a.4.4,0,0,1-.523.04,1.186,1.186,0,0,0-.662-.2H7.493a.675.675,0,0,0-.609.724.715.715,0,0,0,.453.7l2.324.741a2.473,2.473,0,0,1,1.631,2.381A2.383,2.383,0,0,1,9.088,18.485Zm12.392-.871a.426.426,0,0,1-.413.439H15.284a.426.426,0,0,1-.413-.439v-.878a.426.426,0,0,1,.413-.439h5.783a.426.426,0,0,1,.413.439Zm8.261,0a.426.426,0,0,1-.413.439H25.2a.426.426,0,0,1-.413-.439v-.878A.426.426,0,0,1,25.2,16.3h4.131a.426.426,0,0,1,.413.439Zm0-5.268a.426.426,0,0,1-.413.439H15.284a.426.426,0,0,1-.413-.439v-.878a.426.426,0,0,1,.413-.439H29.328a.426.426,0,0,1,.413.439Z" transform="translate(0 -2.25)" fill="#f46b1e" opacity="0.8"/>
</svg>
