<svg id="Symbols" xmlns="http://www.w3.org/2000/svg" width="390" height="809.716" viewBox="0 0 390 809.716">
  <g id="Symbols-2" data-name="Symbols" transform="translate(12.002 1.002)" opacity="0.06">
    <g id="Scene_Plants" data-name="Scene/Plants" transform="translate(-12.002 -1.002)">
      <path id="Leaf-Bottom" d="M183.835,249.315c5.037,2.177,11.433-.99,8.366-7.282-3.286-6.737-14.1-6.256-20.2-5.8.613,0,2.912,6.216,3.636,7.135A20.729,20.729,0,0,0,183.835,249.315ZM120.8,128.732C119.506,127.738,120.694,128.638,120.8,128.732ZM186.931,217.9a5.833,5.833,0,0,0,.207-8.732c-2.958-2.978-8.054-2.6-11.847-2.093-1.716.228-10.876,1.447-8.617,2.838a7.435,7.435,0,0,1-.915-.379q-.361-1.09-.75-2.17c.052-.034.1-.071.153-.1-.061.03-.1.062-.157.093a84.533,84.533,0,0,0-10.574-20.282,19.937,19.937,0,0,0,4.828,1.022c4.831.356,14.731-3.9,9.028-10.012-5.468-5.856-13.137,1.136-18.932,2.349A273.461,273.461,0,0,0,129.7,158.583a1.561,1.561,0,0,0,.913-.846c2.7,1.2,5.534,2.958,7.991,3.347,3.547.56,10.764.634,13.25-2.645,3.059-4.032-.6-6.984-4.492-7.523-5.643-.781-12.812,2.331-18.091,4.457a1.778,1.778,0,0,0-1.658.652l-.347.133C120.253,149.215,113,142.527,105.8,135.99h.222a18.625,18.625,0,0,0,5.913,2.332c4.861.918,10.509.628,14.223-3.05,3.7-3.661,4.757-9.782.539-13.455-8.443-7.352-19.353,10.992-23.367,11.944-7.317-6.568-15.008-12.661-22.809-18.616a13.346,13.346,0,0,0,2.645.4c7.359.317,24.077-9.561,14.627-17.923-8.235-7.286-16.522,8-22.562,13.515-7.347-5.547-14.73-11.051-21.927-16.8a20.04,20.04,0,0,0,11.392-.669c4.094-1.477,10.643-4.971,7.719-10.45-2.975-5.572-10.9-2.55-15-.516-2.239,1.109-6.655,4.688-10.613,6.3-11.516-9.785-21.619-20.7-29.519-33.762A121,121,0,0,1,5.583,29.211C3.743,23.409.207,13.688.41,6c-2.076,15.476,4.1,33.609,10.422,47.013C16.65,65.338,24.947,75.991,34.509,85.471,32.6,92.413,14.019,103.256,25.766,109c6.238,3.034,12.155-2.853,13.172-8.813.7-4.1-.955-9.109-2.633-12.961q4.5,4.327,9.309,8.346c4.415,3.7,8.926,7.287,13.476,10.821-6.819,7.114-12.6,26.731-2.816,29.377,14.443,3.9,6.229-22.021,4.98-26.893a.776.776,0,0,0-.649.285c.057-.455.124-.942.211-1.434,8.7,6.726,17.527,13.3,26.086,20.21-.708.583-1.77,2.725-2.632,3.88a42.054,42.054,0,0,0-5.1,8.312c-2.053,4.735-3.879,12.211,2.344,14.606,6.768,2.611,9.474-5.878,9.26-10.847-.148-3.436-1.255-6.649-1.918-9.99-.207-1.042.131-5.805-1.193-3.694a10.029,10.029,0,0,0-.044-1.682q2.306,1.869,4.581,3.779a1.783,1.783,0,0,0-.1.577,1.718,1.718,0,0,0,2.542,1.488q3.008,2.572,5.947,5.23c4.144,3.764,8.352,7.638,12.536,11.6-.822.784-.426,1.79-1.189,2.617s-2.322,1.341-3.229,2.117a22.884,22.884,0,0,0-5.4,7.424c-2.125,4.459-4.688,13.714,2.292,15.42,7.2,1.763,10.332-7.181,10.5-12.679a139.807,139.807,0,0,0-2.052-14.018c7.744,7.367,15.383,15.03,22.35,22.869-1.981.122-7.389,4.479-8.468,5.646-2.63,2.849-6.725,9.054-1.7,11.96,4.469,2.577,9.583-1.763,11.224-5.806a55.464,55.464,0,0,0,.966-9.489c2.888,3.327,5.652,6.682,8.237,10.057q2.586,3.366,4.874,6.921a3.249,3.249,0,0,0-.9.989c-7.144,1.6-15.745,13.329-7.073,16.8,4.129,1.649,8.3-2.421,10.109-5.669.371-.664.856-3.933,1.256-6.512a135.092,135.092,0,0,1,10.783,24.919,1.576,1.576,0,0,0-1.152,1.525c-3.395,2.178-6.072,3.984-8.314,7.949-1.393,2.462-3.84,8.05.688,9.139,5.894,1.417,9.075-7.638,9.321-12.029.029-.51-.051-1.984-.141-3.334a1.952,1.952,0,0,0,.6-.042c1.617,5.363,2.97,10.81,4.105,16.278-3.115,1.186-2.791,17.85-.557,20.108,4.992,5.056,7.916-2.779,7.452-6.815-.547-4.759-2.939-8.989-5.717-12.709-.3-.393-.218-.378-.259.195a1.153,1.153,0,0,0-.307-.625,72.488,72.488,0,0,0-.115-7.324,169.832,169.832,0,0,0-3.175-18.947q-.513-2.272-1.137-4.5a36.916,36.916,0,0,0,7.568,4.315C178.146,219.322,183.607,220.728,186.931,217.9ZM0,6A17.956,17.956,0,0,1,1,0,46.815,46.815,0,0,0,0,6Z" transform="matrix(-0.999, -0.052, 0.052, -0.999, 192.736, 275.737)" fill="#384195" fill-rule="evenodd"/>
      <g id="Plant-Right" transform="translate(132.871 52.389)" opacity="0.7">
        <path id="Leaf-Me-Alone_" data-name="Leaf-Me-Alone!" d="M66.9,236.96c-13.652-.723-29.61-10.413-29.508-25.324.075-10.834,1.525-21.493,1.022-32.372a87.173,87.173,0,0,0-5.23-25.388C30.364,146,23.543,138.832,22.436,130.62c-.706-5.233.744-12.338,2.981-17.149,2.721-5.849,1.563-5.486-2.052-11.014C16.282,91.624,10.034,80.622,6.108,68.16.453,50.211-2.329,29.632,2.415,11.133,3.018,8.784,4.335.265,7.684.012c3.74-.283,1.509,4.434,1.147,5.995C6.522,15.969,4.485,24.675,4.914,35.085,6.568,75.249,32.2,104.291,47.151,139.8c.834,1.838,2.545,6.185,3.75,9.061,1.9,4.541,3.41,12.96,6.261,16.478,5.37,6.629,1.121-6.009.194-8.433-1.172-3.067-2.474-6.333-3.72-9.044-5.689-12.555-12.069-26.277-17.947-39.221,31.7-3.8,49.6,35.715,55.335,61.061,4.727,20.882,7.963,68.883-24.118,67.256" transform="matrix(-0.995, 0.105, -0.105, -0.995, 118.259, 700.764)" fill="#384195" fill-rule="evenodd"/>
        <path id="Leaf-Me-Alone_2" data-name="Leaf-Me-Alone!" d="M210.8,78.121c-22.822,1.811-37.474,16.871-44.294,37.935-3.676,11.351-4.1,23.012-6.141,34.678-3.072,17.55-9.684,30.851-22.606,43.355a43.615,43.615,0,0,0-9.048,12.1,51.554,51.554,0,0,0-10.447,14.929c-3.4,7.5-4.362,16.508-.437,23.989,1.056,2.012,3.689,6.049,6.418,7.883-10.217,21.76-15.835,45.592-15.2,69.394.383,14.367,1.084,28.741,1.9,43.091.22,3.853,1.475,10.216,3.359,3.754,1.725-5.911-.438-15.19-.638-21.364-.974-30.081-1.806-57.432,10.576-85.536,1.3-2.946,2.676-5.868,4.109-8.766a2.86,2.86,0,0,0,.242-.165c.054.042.1.087.159.129.091-.164.217-.358.363-.575a7.821,7.821,0,0,0,1.112-1.559c1.1-1.522,2.341-3.311,2.348-4.29,0-.007,0-.019,0-.027a405.033,405.033,0,0,1,25.413-35.929c-.067.085,9.728-13.252,8.214-5.877-.73,3.555-7.935,10.323-10.845,14.088a350.806,350.806,0,0,0-20.277,29.25c-.845.486-2.039,2.87-2.9,4.647-.477.9-.922,1.807-1.359,2.6,22.257,7.353,39.57-7.459,51.376-24.687l.04-.062c3.593-4.76,7.273-9.487,11.871-13.25,7.67-6.28,15.885-7.388,24.929-10.478,24.664-8.427,35.15-40.391,38.48-64.108,3.758-26.757-14.622-67.787-46.711-65.149" transform="translate(-0.871 356.327)" fill="#384195" fill-rule="evenodd"/>
        <path id="Leaf-Me-Alone_3" data-name="Leaf-Me-Alone!" d="M98.087,2.282c-26.589,20.882-42.5,52.792-55.8,83.024-14.851,33.766-26.415,68.548-31.8,105.067-3.54,23.993-7.59,48.068-9.559,72.254a257.772,257.772,0,0,0-.884,25.861c.014.708.39,19.951,3.9,15.972,1.994-2.263-.353-19.956-.313-22.843a370.063,370.063,0,0,1,4.383-48.489c3.884-26.468,6.807-52.932,13.2-78.947a90.246,90.246,0,0,1,3.33-11.7c1.57-3.959.053-2.348,3.518-3.515,3.367-1.136,7.223-.364,10.764-1.884,14.049-6.031,23.505-25.263,30.518-37.769,8.022-14.3,13.872-29.93,18.971-45.449a336.241,336.241,0,0,0,9.4-34.547,92.354,92.354,0,0,1,2.607-11.168c.337-.963,1.575-2.575,1.662-3.457.185-1.867-.782-3.116-.654-4.689q-1.641,1.106-3.235,2.282" transform="translate(67.402 14.195) rotate(-8)" fill="#384195" fill-rule="evenodd"/>
        <path id="Base" d="M38,328a73,73,0,0,0,146,0" transform="translate(-0.871 356.327)" fill="#384195" fill-rule="evenodd"/>
        <path id="Leaf-Me-Alone_4" data-name="Leaf-Me-Alone!" d="M116.857,328.232H113a129.5,129.5,0,0,1,1.43-14.456c3.1-18.3,12.77-45.185,33.99-48.156a54.817,54.817,0,0,1,7.151.076,12.883,12.883,0,0,1,5.457-1.611c18.067-1.332,38.243,13.243,46.958,28.412,7.026,12.229,5.842,28.288,1.5,41.281-2.906,8.7-9.248,21.1-19.824,21.221-13.232.151-13.87-16.2-14.126-25.763-.34-12.711-1.946-23.783-11.962-32.447-2.334-2.018-4.885-3.794-7.243-5.784-3.692-3.115-7.772-6.3-8.248-11.459-.656-7.11,3.357-8.39,9.485-7.069,1.045.225,11.568,4.947,10.01,1.215-.476-1.14-2.213-2.044-4.406-2.721-5.674-.617-12.442-1.333-14.388-.9-21,4.606-29.17,33.689-31.341,52.167C117.212,324.227,117.023,326.228,116.857,328.232Z" transform="translate(-0.871 356.327)" fill="#384195" fill-rule="evenodd"/>
      </g>
    </g>
  </g>
</svg>
