<svg xmlns="http://www.w3.org/2000/svg" width="33.182" height="27.445" viewBox="0 0 33.182 27.445">
  <path id="Icon_awesome-warehouse" data-name="Icon awesome-warehouse" d="M26.131,18.87H7.072a.423.423,0,0,0-.415.429l-.005,2.573a.423.423,0,0,0,.415.429H26.131a.423.423,0,0,0,.415-.429V19.3A.423.423,0,0,0,26.131,18.87Zm0,5.146H7.056a.423.423,0,0,0-.415.429l-.005,2.573a.423.423,0,0,0,.415.429h19.08a.423.423,0,0,0,.415-.429V24.445A.423.423,0,0,0,26.131,24.016Zm0-10.292H7.082a.423.423,0,0,0-.415.429l-.005,2.573a.423.423,0,0,0,.415.429H26.131a.423.423,0,0,0,.415-.429V14.152A.423.423,0,0,0,26.131,13.723Zm5.522-7.451L17.545.2a2.421,2.421,0,0,0-1.913,0L1.529,6.272A2.582,2.582,0,0,0,0,8.647V27.018a.423.423,0,0,0,.415.429H4.563a.423.423,0,0,0,.415-.429V13.723a1.706,1.706,0,0,1,1.69-1.715H26.515a1.706,1.706,0,0,1,1.69,1.715V27.018a.423.423,0,0,0,.415.429h4.148a.423.423,0,0,0,.415-.429V8.647A2.582,2.582,0,0,0,31.653,6.272Z" transform="translate(0 -0.002)" fill="#f46b1e" opacity="0.8"/>
</svg>
